<?xml version="1.0" encoding="utf-8"?>
<svg version="1.1" id="hb_cuts"
	xmlns="http://www.w3.org/2000/svg"
	xmlns:xlink="http://www.w3.org/1999/xlink" x="0px" y="0px" viewBox="0 0 483.3 229.2" style="enable-background:new 0 0 483.3 229.2;" xml:space="preserve">
	<style type="text/css">
		svg#hb_cuts .hb-cut-shape,
		svg#hb_cuts .hb-cut-text {
			transition: fill .2s ease;
			cursor: pointer;
		}

		svg#hb_cuts .hb-cut-shape {
			fill: transparent;
			stroke: #ab9c63;
			stroke-width: 1px;
		}

		svg#hb_cuts .hb-cut-text {
			fill: #ab9c63;
		}

		svg#hb_cuts > g.is--active .hb-cut-shape,
		svg#hb_cuts > g:hover .hb-cut-shape {
			fill: #ab9c63;
		}

		svg#hb_cuts > g.is--active .hb-cut-text,
		svg#hb_cuts > g:hover .hb-cut-text {
			fill: white;
		}
	</style>

	<g id="shin">
		<g>
			<path class="hb-cut-shape" d="
		M403.9,175.6c0.1,0.1,0.1,0.3,0.2,0.4c5.4,10.4,23.1,32.2,28.6,39
		c10.8-0.7,29.5-2.9,37.7-3.9c-0.8-5.2-2.6-9.4-4.8-14.3c-0.8-1.8-1.5-3.5-2.3-5.4c-3.3-8.2-4.3-13.7-3.9-21.4
		C439.7,167.5,421,169.4,403.9,175.6z"/>
			<g class="hb-cut-text">
				<path d="M434.6,191.8c0,0,0.7,0.8,1.8,0.8c0.7,0,1.2-0.4,1.2-1c0-1.5-3.4-1.2-3.4-3.3c0-1.1,0.9-2,2.3-2
			c1.3,0,2,0.7,2,0.7l-0.4,0.8c0,0-0.6-0.6-1.5-0.6c-0.7,0-1.3,0.5-1.3,1c0,1.4,3.4,1.1,3.4,3.3c0,1.1-0.8,2-2.2,2
			c-1.5,0-2.3-0.9-2.3-0.9L434.6,191.8z"/>
				<path d="M439.8,186.4h1v2.6c0,0.2,0,0.4,0,0.4l0,0c0.2-0.5,0.9-1.1,1.9-1.1c1.2,0,1.7,0.6,1.7,1.9v3.2h-1v-3
			c0-0.7-0.1-1.3-1-1.3c-0.8,0-1.4,0.5-1.6,1.2c-0.1,0.2-0.1,0.4-0.1,0.7v2.3h-1v-6.9H439.8z"/>
				<path d="M445.7,186.4h1v1h-1V186.4z M445.7,188.4h1v5h-1V188.4z"/>
				<path d="M448.2,188.4h0.9v0.7c0,0.2,0,0.4,0,0.4l0,0c0.2-0.4,0.8-1.1,1.9-1.1c1.2,0,1.7,0.6,1.7,1.9v3.2h-1v-3
			c0-0.7-0.1-1.3-1-1.3c-0.8,0-1.4,0.5-1.6,1.2c-0.1,0.2-0.1,0.4-0.1,0.7v2.3h-1v-5H448.2z"/>
			</g>
		</g>
		<g>
			<path class="hb-cut-shape" d="M144.7,227.3
		c5.8,0.6,11.1,0.9,15.7,0.9c4,0,8.3-0.5,9.6-0.6l3.5-32c-3.3-0.3-21.6-1.7-33.2-3c1,4.3,2.4,11.7,3.3,23.7
		C144,219.4,144.4,224.2,144.7,227.3z"/>
			<g class="hb-cut-text">
				<path d="M149.3,208.6c0,0,0.7,0.8,1.8,0.8c0.7,0,1.2-0.4,1.2-1c0-1.5-3.4-1.2-3.4-3.3c0-1.1,0.9-2,2.3-2
			c1.3,0,2,0.7,2,0.7l-0.4,0.8c0,0-0.6-0.6-1.5-0.6c-0.7,0-1.3,0.5-1.3,1c0,1.4,3.4,1.1,3.4,3.3c0,1.1-0.8,2-2.2,2
			c-1.5,0-2.3-0.9-2.3-0.9L149.3,208.6z"/>
				<path d="M154.4,203.1h1v2.6c0,0.2,0,0.4,0,0.4l0,0c0.2-0.5,0.9-1.1,1.9-1.1c1.2,0,1.7,0.6,1.7,1.9v3.2h-1v-3
			c0-0.7-0.1-1.3-1-1.3c-0.8,0-1.4,0.5-1.6,1.2c-0.1,0.2-0.1,0.4-0.1,0.7v2.3h-1v-6.9H154.4z"/>
				<path d="M160.4,203.1h1v1h-1V203.1z M160.4,205.1h1v5h-1V205.1z"/>
				<path d="M162.9,205.1h0.9v0.7c0,0.2,0,0.4,0,0.4l0,0c0.2-0.4,0.8-1.1,1.9-1.1c1.2,0,1.7,0.6,1.7,1.9v3.2h-1v-3
			c0-0.7-0.1-1.3-1-1.3c-0.8,0-1.4,0.5-1.6,1.2c-0.1,0.2-0.1,0.4-0.1,0.7v2.3h-1v-5H162.9z"/>
			</g>
		</g>
	</g>

	<g id="knuckle">
		<path class="hb-cut-shape" d="M400,110.2c-0.2,25.8-2,44.5-3,54c31.2-8.6,45.4-6.8,60.4-4.8c1.2,0.2,2.4,0.3,3.6,0.5
	c1.4-4.6,3.8-9.9,6.4-15.5c3.4-7.5,6.8-15.1,8.7-22.3c0.8-3.1,1.6-6.8,2.3-11.1C454.2,107.7,428.5,107.4,400,110.2z"/>
		<g class="hb-cut-text">
			<path d="M413.2,128.1h1v2.9h1l1.8-2.9h1.1l-2,3.3l0,0l2.2,3.7h-1.1l-1.9-3.2h-1v3.2h-1v-7H413.2z"/>
			<path d="M419.1,130.1h0.9v0.7c0,0.2,0,0.4,0,0.4l0,0c0.2-0.4,0.8-1.1,1.9-1.1c1.2,0,1.7,0.6,1.7,1.9v3.2h-1v-3
		c0-0.7-0.1-1.3-1-1.3c-0.8,0-1.4,0.5-1.6,1.2c-0.1,0.2-0.1,0.4-0.1,0.7v2.3h-1v-5H419.1z"/>
			<path d="M425,130.1h1v3c0,0.7,0.1,1.2,0.9,1.2c1,0,1.6-0.9,1.6-1.9v-2.3h1v5h-0.9v-0.7c0-0.2,0-0.4,0-0.4l0,0
		c-0.2,0.5-0.9,1.1-1.8,1.1c-1.1,0-1.7-0.6-1.7-1.9v-3.1H425z"/>
			<path d="M433.4,130c1.3,0,1.9,0.7,1.9,0.7l-0.5,0.7c0,0-0.5-0.6-1.4-0.6c-1,0-1.7,0.8-1.7,1.8s0.7,1.8,1.8,1.8
		c0.9,0,1.5-0.7,1.5-0.7l0.4,0.7c0,0-0.7,0.8-2,0.8c-1.6,0-2.7-1.1-2.7-2.6C430.7,131.1,431.8,130,433.4,130z"/>
			<path d="M436.4,128.1h1v3.8h0.7l1.4-1.8h1.1l-1.7,2.2l0,0l1.9,2.8h-1.1l-1.5-2.4h-0.7v2.4h-1L436.4,128.1L436.4,128.1
		z"/>
			<path d="M441.6,128.1h1v5.5c0,0.6,0.2,0.7,0.5,0.7c0.1,0,0.2,0,0.2,0v0.9c0,0-0.1,0-0.3,0c-0.5,0-1.3-0.1-1.3-1.4
		v-5.7H441.6z"/>
			<path d="M446.4,130c1.4,0,2.2,1,2.2,2.3c0,0.1,0,0.4,0,0.4h-3.7c0,1.1,0.8,1.7,1.7,1.7c0.9,0,1.5-0.6,1.5-0.6l0.4,0.7
		c0,0-0.7,0.7-1.9,0.7c-1.6,0-2.7-1.1-2.7-2.6C443.9,131,445,130,446.4,130z M447.6,132c0-0.9-0.6-1.3-1.2-1.3
		c-0.7,0-1.3,0.5-1.5,1.3H447.6z"/>
		</g>
	</g>

	<g id="flank">
		<path class="hb-cut-shape" d="M248.3,184.7
	c6,0.2,11.7,0.3,17.3,0.3c2.8,0,5.7,0,8.4-0.1c24.2-0.4,54.6-8.4,74.7-13.6c2-0.5,4-1,5.9-1.5c6-1.6,10.3-2.7,12.6-3.1
	c0.9-0.2,1.9-0.4,2.8-0.6c3.3-0.7,8.9-1.5,12.7-1.8c1-0.1,4.9-0.3,6.7-0.1c1.1-12.1,2.5-31,2.7-53.1c-8.4,1-16.1,2.1-22.2,2.9
	c-3.4,0.5-6.4,0.9-9.1,1.3c-4.4,0.6-9.1,1.2-14,1.9c-19.5,2.8-43.7,6.2-85.3,8.8C258.4,145.1,253.9,164.9,248.3,184.7z"/>
		<g class="hb-cut-text">
			<path d="M311.7,142.1h3.9v0.9h-2.9v2.3h2.4v0.9h-2.4v3h-1V142.1z"/>
			<path d="M316.6,142.1h1v5.5c0,0.6,0.2,0.7,0.5,0.7c0.1,0,0.2,0,0.2,0v0.9c0,0-0.1,0-0.3,0c-0.5,0-1.3-0.1-1.3-1.4
		v-5.7H316.6z"/>
			<path d="M321.9,146h0.2v-0.1c0-0.8-0.5-1.1-1.1-1.1c-0.8,0-1.4,0.5-1.4,0.5l-0.4-0.7c0,0,0.7-0.6,1.9-0.6
		c1.3,0,2,0.7,2,2v3.2h-0.9v-0.5c0-0.2,0-0.4,0-0.4l0,0c0,0-0.4,1-1.6,1c-0.9,0-1.7-0.5-1.7-1.5C318.9,146,321,146,321.9,146z
			M320.8,148.4c0.8,0,1.3-0.9,1.3-1.6v-0.2h-0.2c-0.7,0-2,0-2,1C319.8,148,320.1,148.4,320.8,148.4z"/>
			<path d="M324.5,144.1h0.9v0.7c0,0.2,0,0.4,0,0.4l0,0c0.2-0.4,0.8-1.1,1.9-1.1c1.2,0,1.7,0.6,1.7,1.9v3.2h-1v-3
		c0-0.7-0.1-1.3-1-1.3c-0.8,0-1.4,0.5-1.6,1.2c-0.1,0.2-0.1,0.4-0.1,0.7v2.3h-1v-5H324.5z"/>
			<path d="M330.5,142.1h1v3.8h0.7l1.4-1.8h1.1l-1.7,2.2l0,0l1.9,2.8h-1.1l-1.5-2.4h-0.7v2.4h-1L330.5,142.1L330.5,142.1
		z"/>
		</g>
	</g>

	<g id="brisket">
		<path class="hb-cut-shape" d="M96.6,111.6c0.2,0.8,0.5,2.3,1,4.8c0.1,0.7,0.2,1.3,0.3,1.5c0.6,2.4,1.3,4.8,2.1,7.1
	c1.5,4.8,3.3,9.3,5.3,13.5c4.3,9.1,9.7,16.9,16.1,23.3c7,7,15.3,12.5,24.8,16.3c10,4,21.2,6.2,35.2,6.8c5,0.2,49.4-0.9,49.9-1
	c3.3,0.2,6.4,0.3,9.8,0.5c5.5-19.6,9.9-39.1,13.1-58c-5.1,0.3-10.1,0.6-15.1,0.8l0,0C191.7,129.5,129.9,118.5,96.6,111.6z"/>
		<g class="hb-cut-text">
			<path d="M167.8,145.8h2.4c1.2,0,2,0.7,2,1.8c0,0.7-0.3,1.2-0.9,1.5l0,0c0.7,0.2,1.1,0.9,1.1,1.7c0,1.3-1,2-2.2,2h-2.5
		L167.8,145.8L167.8,145.8z M170.2,148.7c0.6,0,1-0.4,1-1.1c0-0.6-0.4-1-1-1h-1.4v2.1H170.2z M170.3,151.9c0.8,0,1.2-0.5,1.2-1.2
		s-0.5-1.2-1.2-1.2h-1.6v2.4H170.3z"/>
			<path d="M173.9,147.8h0.9v0.9c0,0.2,0,0.4,0,0.4l0,0c0.2-0.7,0.8-1.3,1.6-1.3c0.1,0,0.2,0,0.2,0v1c0,0-0.1,0-0.3,0
		c-0.6,0-1.2,0.4-1.4,1.2c-0.1,0.3-0.1,0.6-0.1,0.9v2h-1v-5.1H173.9z"/>
			<path d="M177.6,145.8h1v1h-1V145.8z M177.6,147.8h1v5h-1V147.8z"/>
			<path d="M180.1,151.5c0,0,0.6,0.6,1.4,0.6c0.4,0,0.8-0.2,0.8-0.6c0-0.9-2.6-0.7-2.6-2.4c0-0.9,0.8-1.4,1.8-1.4
		c1.1,0,1.6,0.6,1.6,0.6l-0.4,0.7c0,0-0.4-0.4-1.2-0.4c-0.4,0-0.8,0.2-0.8,0.6c0,0.9,2.6,0.7,2.6,2.3c0,0.8-0.7,1.5-1.8,1.5
		c-1.2,0-1.9-0.7-1.9-0.7L180.1,151.5z"/>
			<path d="M184.5,145.8h1v3.8h0.7l1.4-1.8h1.1L187,150l0,0l1.9,2.8h-1.1l-1.5-2.4h-0.7v2.4h-1L184.5,145.8L184.5,145.8z
		"/>
			<path d="M191.8,147.6c1.4,0,2.2,1,2.2,2.3c0,0.1,0,0.4,0,0.4h-3.7c0,1.1,0.8,1.7,1.7,1.7s1.5-0.6,1.5-0.6l0.4,0.7
		c0,0-0.7,0.7-1.9,0.7c-1.6,0-2.7-1.1-2.7-2.6C189.3,148.7,190.3,147.6,191.8,147.6z M192.9,149.7c0-0.9-0.6-1.3-1.2-1.3
		c-0.7,0-1.3,0.5-1.5,1.3H192.9z"/>
			<path d="M195.3,148.6h-0.7v-0.8h0.7v-1.4h0.9v1.4h1.2v0.8h-1.2v2.2c0,1,0.7,1.1,1.1,1.1c0.1,0,0.2,0,0.2,0v0.9
		c0,0-0.1,0-0.3,0c-0.6,0-1.9-0.2-1.9-1.9V148.6z"/>
		</g>
	</g>

	<g id="tail">
		<path class="hb-cut-shape" d="M427.2,7.7
	c7.4,9.2,22.3,20,51.7,21.3c-5.5-12.5-18.2-19.5-37.8-20.7C437,8,432.3,7.8,427.2,7.7z"/>
		<g class="hb-cut-text">
			<path d="M448.5,14.5h-2.4v-0.9h5.8v0.9h-2.4v6.1h-1V14.5z"/>
			<path d="M454.5,17.5h0.2v-0.1c0-0.8-0.5-1.1-1.1-1.1c-0.8,0-1.4,0.5-1.4,0.5l-0.4-0.7c0,0,0.7-0.6,1.9-0.6
		c1.3,0,2,0.7,2,2v3.2h-0.9v-0.5c0-0.2,0-0.4,0-0.4l0,0c0,0-0.4,1-1.6,1c-0.9,0-1.7-0.5-1.7-1.5C451.5,17.6,453.6,17.5,454.5,17.5z
			M453.4,20c0.8,0,1.3-0.9,1.3-1.6v-0.2h-0.2c-0.7,0-2,0-2,1C452.4,19.6,452.7,20,453.4,20z"/>
			<path d="M457.1,13.7h1v1h-1V13.7z M457.1,15.7h1v5h-1V15.7z"/>
			<path d="M459.5,13.7h1v5.5c0,0.6,0.2,0.7,0.5,0.7c0.1,0,0.2,0,0.2,0v0.9c0,0-0.1,0-0.3,0c-0.5,0-1.3-0.1-1.3-1.4v-5.7
		H459.5z"/>
		</g>
	</g>

	<g id="round">
		<path class="hb-cut-shape" d="M437.7,99.8c14.6,0,28.6,0.9,42.1,2.8
	c1.2-9.2,2.5-24,2.6-43c-22.8,0.3-48.7,2.6-83.6,7.4c0.8,11,1.2,22.7,1.3,34.7C413.1,100.4,425.6,99.8,437.7,99.8z"/>
		<g class="hb-cut-text">
			<path d="M426.3,76.2h2.1c0.7,0,1,0.1,1.3,0.2c0.7,0.3,1.2,1,1.2,1.9s-0.5,1.6-1.3,1.9l0,0c0,0,0.1,0.1,0.2,0.3
		l1.5,2.7h-1.1l-1.5-2.8h-1.5v2.8h-1L426.3,76.2L426.3,76.2z M428.7,79.5c0.8,0,1.2-0.5,1.2-1.3c0-0.5-0.2-0.9-0.6-1.1
		c-0.2-0.1-0.4-0.2-1-0.2h-1.1v2.5L428.7,79.5L428.7,79.5z"/>
			<path d="M434.8,78c1.5,0,2.7,1.1,2.7,2.6s-1.2,2.6-2.7,2.6s-2.7-1.1-2.7-2.6C432.1,79.1,433.3,78,434.8,78z
			M434.8,82.4c1,0,1.7-0.8,1.7-1.8s-0.8-1.8-1.7-1.8c-0.9,0-1.7,0.7-1.7,1.8C433.1,81.7,433.8,82.4,434.8,82.4z"/>
			<path d="M438.5,78.1h1v3c0,0.7,0.1,1.2,0.9,1.2c1,0,1.6-0.9,1.6-1.9v-2.3h1v5h-0.9v-0.7c0-0.2,0-0.4,0-0.4l0,0
		c-0.2,0.5-0.9,1.1-1.8,1.1c-1.1,0-1.7-0.6-1.7-1.9v-3.1H438.5z"/>
			<path d="M444.5,78.1h0.9v0.7c0,0.2,0,0.4,0,0.4l0,0c0.2-0.4,0.8-1.1,1.9-1.1c1.2,0,1.7,0.6,1.7,1.9v3.2h-1v-3
		c0-0.7-0.1-1.3-1-1.3c-0.8,0-1.4,0.5-1.6,1.2c-0.1,0.2-0.1,0.4-0.1,0.7v2.3h-1v-5H444.5z"/>
			<path d="M452.4,78c1.2,0,1.5,0.8,1.5,0.8l0,0c0,0,0-0.1,0-0.3v-2.3h1v7H454v-0.5c0-0.2,0-0.3,0-0.3l0,0
		c0,0-0.4,0.9-1.6,0.9c-1.4,0-2.2-1.1-2.2-2.6C450.2,79.1,451.1,78,452.4,78z M452.6,82.4c0.7,0,1.4-0.5,1.4-1.8
		c0-0.9-0.5-1.8-1.4-1.8c-0.8,0-1.4,0.7-1.4,1.8C451.2,81.7,451.7,82.4,452.6,82.4z"/>
		</g>
	</g>

	<g id="topside">
		<path class="hb-cut-shape" d="M389.7,8.3c3.9,14.9,6.7,32.1,8.4,51c35.2-4.9,61.2-7.2,84.2-7.5c-0.1-2.8-0.1-5.5-0.2-8.2c-0.1-3.1-0.5-6.1-1.2-8.8
	c-1.2,0-2.4,0-3.5,0c-40.1,0-56-16.8-61.9-27.2C407.2,7.7,398.5,7.9,389.7,8.3z"/>
		<g class="hb-cut-text">
			<path d="M410.6,36.6h-2.4v-0.9h5.8v0.9h-2.4v6.1h-1V36.6z"/>
			<path d="M416.2,37.7c1.5,0,2.7,1.1,2.7,2.6s-1.2,2.6-2.7,2.6s-2.7-1.1-2.7-2.6S414.7,37.7,416.2,37.7z M416.2,42.1
		c1,0,1.7-0.8,1.7-1.8s-0.8-1.8-1.7-1.8c-0.9,0-1.7,0.7-1.7,1.8C414.5,41.3,415.3,42.1,416.2,42.1z"/>
			<path d="M420.1,37.8h0.9v0.4c0,0.2,0,0.4,0,0.4l0,0c0,0,0.4-0.9,1.7-0.9c1.3,0,2.2,1.1,2.2,2.6c0,1.6-1,2.6-2.3,2.6
		c-1.1,0-1.5-0.8-1.5-0.8l0,0c0,0,0,0.2,0,0.4v2.2h-1L420.1,37.8L420.1,37.8z M422.4,42.1c0.8,0,1.4-0.7,1.4-1.8s-0.6-1.8-1.4-1.8
		S421,39,421,40.3C421,41.2,421.5,42.1,422.4,42.1z"/>
			<path d="M426.1,41.5c0,0,0.6,0.6,1.4,0.6c0.4,0,0.8-0.2,0.8-0.6c0-0.9-2.6-0.7-2.6-2.4c0-0.9,0.8-1.4,1.8-1.4
		c1.1,0,1.6,0.6,1.6,0.6l-0.4,0.7c0,0-0.4-0.4-1.2-0.4c-0.4,0-0.8,0.2-0.8,0.6c0,0.9,2.6,0.7,2.6,2.3c0,0.8-0.7,1.5-1.8,1.5
		c-1.2,0-1.9-0.7-1.9-0.7L426.1,41.5z"/>
			<path d="M430.4,35.8h1v1h-1V35.8z M430.4,37.8h1v5h-1V37.8z"/>
			<path d="M434.8,37.7c1.2,0,1.5,0.8,1.5,0.8l0,0c0,0,0-0.1,0-0.3v-2.3h1v7h-0.9v-0.5c0-0.2,0-0.3,0-0.3l0,0
		c0,0-0.4,0.9-1.6,0.9c-1.4,0-2.2-1.1-2.2-2.6C432.6,38.7,433.5,37.7,434.8,37.7z M435,42.1c0.7,0,1.4-0.5,1.4-1.8
		c0-0.9-0.5-1.8-1.4-1.8c-0.8,0-1.4,0.7-1.4,1.8C433.6,41.4,434.1,42.1,435,42.1z"/>
			<path d="M441,37.7c1.4,0,2.2,1,2.2,2.3c0,0.1,0,0.4,0,0.4h-3.7c0,1.1,0.8,1.7,1.7,1.7c0.9,0,1.5-0.6,1.5-0.6l0.4,0.7
		c0,0-0.7,0.7-1.9,0.7c-1.6,0-2.7-1.1-2.7-2.6C438.5,38.7,439.6,37.7,441,37.7z M442.2,39.7c0-0.9-0.6-1.3-1.2-1.3
		c-0.7,0-1.3,0.5-1.5,1.3H442.2z"/>
		</g>
	</g>

	<g id="rump">
		<path class="hb-cut-shape" d="M333.9,12c2.8,16.6,4,35.7,3.8,56.9c0,2.3-0.1,4.6-0.1,6.9c-0.4,15.3-1.5,28-2.2,34.5
	c4-0.5,7.7-1.1,11.3-1.6c4.9-0.7,9.6-1.4,14-1.9c2.7-0.3,5.7-0.8,9.1-1.3c6.2-0.9,13.9-2,22.4-2.9c0-12.1-0.5-23.9-1.3-34.9l0,0
	c-0.2-2.2-0.3-4.5-0.5-6.8c-1.7-19.4-4.5-36.9-8.4-52.2c-6.8,0.4-13.8,0.9-20.7,1.4C353.1,10.8,343.9,11.4,333.9,12z"/>
		<g class="hb-cut-text">
			<path d="M351.3,35.9h2.1c0.7,0,1,0.1,1.3,0.2c0.7,0.3,1.2,1,1.2,1.9s-0.5,1.6-1.3,1.9l0,0c0,0,0.1,0.1,0.2,0.3
		l1.5,2.7h-1.1l-1.5-2.8h-1.5v2.8h-1L351.3,35.9L351.3,35.9z M353.7,39.3c0.8,0,1.2-0.5,1.2-1.3c0-0.5-0.2-0.9-0.6-1.1
		c-0.2-0.1-0.4-0.2-1-0.2h-1.1v2.5L353.7,39.3L353.7,39.3z"/>
			<path d="M357.4,37.9h1v3c0,0.7,0.1,1.2,0.9,1.2c1,0,1.6-0.9,1.6-1.9v-2.3h1v5H361v-0.7c0-0.2,0-0.4,0-0.4l0,0
		c-0.2,0.5-0.9,1.1-1.8,1.1c-1.1,0-1.7-0.6-1.7-1.9v-3.1H357.4z"/>
			<path d="M363.4,37.9h0.9v0.7c0,0.2,0,0.4,0,0.4l0,0c0.2-0.6,0.9-1.1,1.7-1.1c0.8,0,1.3,0.4,1.5,1.1l0,0
		c0.3-0.6,1-1.1,1.8-1.1c1.1,0,1.7,0.6,1.7,1.9V43h-1v-3c0-0.7-0.1-1.3-0.9-1.3c-0.7,0-1.2,0.6-1.4,1.3c0,0.2-0.1,0.4-0.1,0.7V43
		h-1v-3c0-0.7-0.1-1.3-0.9-1.3c-0.7,0-1.2,0.6-1.4,1.3c0,0.2-0.1,0.4-0.1,0.7V43h-1v-5.1H363.4z"/>
			<path d="M372.4,37.9h0.9v0.4c0,0.2,0,0.4,0,0.4l0,0c0,0,0.4-0.9,1.7-0.9c1.3,0,2.2,1.1,2.2,2.6c0,1.6-1,2.6-2.3,2.6
		c-1.1,0-1.5-0.8-1.5-0.8l0,0c0,0,0,0.2,0,0.4v2.2h-1L372.4,37.9L372.4,37.9z M374.8,42.2c0.8,0,1.4-0.7,1.4-1.8s-0.6-1.8-1.4-1.8
		s-1.4,0.5-1.4,1.8C373.4,41.3,373.9,42.2,374.8,42.2z"/>
		</g>
	</g>

	<g id="skirt">
		<path class="hb-cut-shape" d="M266.4,85.4c-0.8,10.4-1.9,21.2-3.5,32c31-2,51.9-4.5,65-6.2
	c0.7-6.3,1.8-18.7,2.2-33.9C310.7,80.2,288.1,83.4,266.4,85.4z"/>
		<g class="hb-cut-text">
			<path d="M287.4,100.5c0,0,0.7,0.8,1.8,0.8c0.7,0,1.2-0.4,1.2-1c0-1.5-3.4-1.2-3.4-3.3c0-1.1,0.9-2,2.3-2
		c1.3,0,2,0.7,2,0.7l-0.4,0.8c0,0-0.6-0.6-1.5-0.6c-0.7,0-1.3,0.5-1.3,1c0,1.4,3.4,1.1,3.4,3.3c0,1.1-0.8,2-2.2,2
		c-1.5,0-2.3-0.9-2.3-0.9L287.4,100.5z"/>
			<path d="M292.6,95.1h1v3.8h0.7l1.4-1.8h1.1l-1.7,2.2l0,0l1.9,2.8h-1.1l-1.5-2.4h-0.7v2.4h-1L292.6,95.1L292.6,95.1z" />
			<path d="M297.8,95.1h1v1h-1V95.1z M297.8,97h1v5h-1V97z"/>
			<path d="M300.2,97h0.9v0.9c0,0.2,0,0.4,0,0.4l0,0c0.2-0.7,0.8-1.3,1.6-1.3c0.1,0,0.2,0,0.2,0v1c0,0-0.1,0-0.3,0
		c-0.6,0-1.2,0.4-1.4,1.2c-0.1,0.3-0.1,0.6-0.1,0.9v2h-1L300.2,97L300.2,97z"/>
			<path d="M304.2,97.9h-0.7v-0.8h0.7v-1.4h0.9v1.4h1.2v0.8h-1.2v2.2c0,1,0.7,1.1,1.1,1.1c0.1,0,0.2,0,0.2,0v0.9
		c0,0-0.1,0-0.3,0c-0.6,0-1.9-0.2-1.9-1.9L304.2,97.9L304.2,97.9z"/>
		</g>
	</g>

	<g id="shortloin">
		<path class="hb-cut-shape" d="M264.7,14.3c1.9,13.3,3.7,34.9,2.2,63.2
	c21.6-2,44.1-5.2,63.4-8.1c0.3-21.3-1-40.4-3.7-57.1C305.9,13.4,284,14.1,264.7,14.3z"/>
		<g class="hb-cut-text">
			<path d="M279.4,41.4c0,0,0.7,0.8,1.8,0.8c0.7,0,1.2-0.4,1.2-1c0-1.5-3.4-1.2-3.4-3.3c0-1.1,0.9-2,2.3-2
		c1.3,0,2,0.7,2,0.7l-0.4,0.8c0,0-0.6-0.6-1.5-0.6c-0.7,0-1.3,0.5-1.3,1c0,1.4,3.4,1.1,3.4,3.3c0,1.1-0.8,2-2.2,2
		c-1.5,0-2.3-0.9-2.3-0.9L279.4,41.4z"/>
			<path d="M284.5,35.9h1v2.6c0,0.2,0,0.4,0,0.4l0,0c0.2-0.5,0.9-1.1,1.9-1.1c1.2,0,1.7,0.6,1.7,1.9v3.2h-1v-3
		c0-0.7-0.1-1.3-1-1.3c-0.8,0-1.4,0.5-1.6,1.2c-0.1,0.2-0.1,0.4-0.1,0.7v2.3h-1v-6.9H284.5z"/>
			<path d="M292.8,37.8c1.5,0,2.7,1.1,2.7,2.6s-1.2,2.6-2.7,2.6s-2.7-1.1-2.7-2.6C290.1,38.9,291.3,37.8,292.8,37.8z
			M292.8,42.2c1,0,1.7-0.8,1.7-1.8s-0.8-1.8-1.7-1.8c-0.9,0-1.7,0.7-1.7,1.8C291.1,41.4,291.9,42.2,292.8,42.2z"/>
			<path d="M296.7,37.9h0.9v0.9c0,0.2,0,0.4,0,0.4l0,0c0.2-0.7,0.8-1.3,1.6-1.3c0.1,0,0.2,0,0.2,0v1c0,0-0.1,0-0.3,0
		c-0.6,0-1.2,0.4-1.4,1.2c-0.1,0.3-0.1,0.6-0.1,0.9v2h-1L296.7,37.9L296.7,37.9z"/>
			<path d="M304.1,35.9h1v5.5c0,0.6,0.2,0.7,0.5,0.7c0.1,0,0.2,0,0.2,0V43c0,0-0.1,0-0.3,0c-0.5,0-1.3-0.1-1.3-1.4v-5.7
		H304.1z"/>
			<path d="M309.2,37.8c1.5,0,2.7,1.1,2.7,2.6s-1.2,2.6-2.7,2.6s-2.7-1.1-2.7-2.6C306.5,38.9,307.7,37.8,309.2,37.8z
			M309.2,42.2c1,0,1.7-0.8,1.7-1.8s-0.8-1.8-1.7-1.8c-0.9,0-1.7,0.7-1.7,1.8C307.4,41.4,308.2,42.2,309.2,42.2z"/>
			<path d="M313,35.9h1v1h-1V35.9z M313,37.9h1v5h-1V37.9z"/>
			<path d="M315.5,37.9h0.9v0.7c0,0.2,0,0.4,0,0.4l0,0c0.2-0.4,0.8-1.1,1.9-1.1c1.2,0,1.7,0.6,1.7,1.9V43h-1v-3
		c0-0.7-0.1-1.3-1-1.3c-0.8,0-1.4,0.5-1.6,1.2c-0.1,0.2-0.1,0.4-0.1,0.7v2.3h-1v-5H315.5z"/>
			<path d="M300.9,38.8h-0.7V38h0.7v-1.4h0.9V38h1.2v0.8h-1.2V41c0,1,0.7,1.1,1.1,1.1c0.1,0,0.2,0,0.2,0V43
		c0,0-0.1,0-0.3,0c-0.6,0-1.9-0.2-1.9-1.9L300.9,38.8L300.9,38.8z"/>
		</g>
	</g>

	<g id="ribset">
		<path class="hb-cut-shape" d="M220.9,119
	c6.4,0.1,12.4,0,18-0.3c5.5-0.3,11.1-0.6,16.5-0.9c1.6-10.9,2.8-21.8,3.6-32.4c0.2-2.3,0.3-4.6,0.4-6.9c1.6-28.8-0.2-50.8-2.1-64.2
	c-1.5,0-2.9,0-4.3,0c-8.4,0-15.8-0.1-22-0.3c-1.1,0-2.3-0.1-3.5-0.2c-0.3,17.1-1.1,42.4-2.7,66.4c-0.2,2.3-0.3,4.6-0.5,6.8
	C223.3,99.8,222.2,110.5,220.9,119z"/>
		<g class="hb-cut-text">
			<path d="M236.6,36.2h2.1c0.7,0,1,0.1,1.3,0.2c0.7,0.3,1.2,1,1.2,1.9s-0.5,1.6-1.3,1.9l0,0c0,0,0.1,0.1,0.2,0.3
		l1.5,2.7h-1.1l-1.5-2.8h-1.5v2.8h-1v-7H236.6z M239,39.5c0.8,0,1.2-0.5,1.2-1.3c0-0.5-0.2-0.9-0.6-1.1c-0.2-0.1-0.4-0.2-1-0.2
		h-1.1v2.5L239,39.5L239,39.5z"/>
			<path d="M242.7,36.2h1v1h-1V36.2z M242.7,38.1h1v5h-1V38.1z"/>
			<path d="M245.2,36.2h1v2.3c0,0.2,0,0.4,0,0.4l0,0c0,0,0.4-0.9,1.6-0.9c1.3,0,2.2,1.1,2.2,2.6c0,1.6-1,2.6-2.3,2.6
		c-1.1,0-1.6-0.9-1.6-0.9l0,0c0,0,0,0.2,0,0.4v0.4h-0.9V36.2z M247.6,42.4c0.8,0,1.4-0.7,1.4-1.8s-0.6-1.8-1.4-1.8
		c-0.8,0-1.4,0.5-1.4,1.8C246.1,41.6,246.6,42.4,247.6,42.4z"/>
			<path d="M236.8,53.5c0,0,0.7,0.8,1.8,0.8c0.7,0,1.2-0.4,1.2-1c0-1.5-3.4-1.2-3.4-3.3c0-1.1,0.9-2,2.3-2
		c1.3,0,2,0.7,2,0.7l-0.4,0.8c0,0-0.6-0.6-1.5-0.6c-0.7,0-1.3,0.5-1.3,1c0,1.4,3.4,1.1,3.4,3.3c0,1.1-0.8,2-2.2,2
		c-1.5,0-2.3-0.9-2.3-0.9L236.8,53.5z"/>
			<path d="M244.2,49.9c1.4,0,2.2,1,2.2,2.3c0,0.1,0,0.4,0,0.4h-3.7c0,1.1,0.8,1.7,1.7,1.7s1.5-0.6,1.5-0.6l0.4,0.7
		c0,0-0.7,0.7-1.9,0.7c-1.6,0-2.7-1.1-2.7-2.6C241.7,50.9,242.7,49.9,244.2,49.9z M245.4,52c0-0.9-0.6-1.3-1.2-1.3
		c-0.7,0-1.3,0.5-1.5,1.3H245.4z"/>
			<path d="M247.7,50.9H247v-0.8h0.7v-1.4h0.9v1.4h1.2v0.8h-1.2v2.2c0,1,0.7,1.1,1.1,1.1c0.1,0,0.2,0,0.2,0v0.9
		c0,0-0.1,0-0.3,0c-0.6,0-1.9-0.2-1.9-1.9V50.9z"/>
		</g>
	</g>

	<g id="blade">
		<path class="hb-cut-shape" d="M94.8,102.7
	c25.6,5.4,74.7,14.5,118.3,16.1c1.3-8.4,2.4-19.1,3.3-31.7c0.2-2.3,0.3-4.5,0.5-6.8c0.1-1.5,0.2-3.1,0.3-4.6
	c-40.7,11.4-95,11.6-124.2,10.6C93.4,92.1,94,97.6,94.8,102.7z"/>
		<g class="hb-cut-text">
			<path d="M162.3,95.1h2.4c1.2,0,2,0.7,2,1.8c0,0.7-0.3,1.2-0.9,1.5l0,0c0.7,0.2,1.1,0.9,1.1,1.7c0,1.3-1,2-2.2,2h-2.5
		L162.3,95.1L162.3,95.1z M164.8,98c0.6,0,1-0.4,1-1.1c0-0.6-0.4-1-1-1h-1.4V98H164.8z M164.9,101.2c0.8,0,1.2-0.5,1.2-1.2
		s-0.5-1.2-1.2-1.2h-1.6v2.4C163.3,101.2,164.9,101.2,164.9,101.2z"/>
			<path d="M168.3,95.1h1v5.5c0,0.6,0.2,0.7,0.5,0.7c0.1,0,0.2,0,0.2,0v0.9c0,0-0.1,0-0.3,0c-0.5,0-1.3-0.1-1.3-1.4
		L168.3,95.1L168.3,95.1z"/>
			<path d="M173.6,98.9h0.2v-0.1c0-0.8-0.5-1.1-1.1-1.1c-0.8,0-1.4,0.5-1.4,0.5l-0.4-0.7c0,0,0.7-0.6,1.9-0.6
		c1.3,0,2,0.7,2,2v3.2h-0.9v-0.5c0-0.2,0-0.4,0-0.4l0,0c0,0-0.4,1-1.6,1c-0.9,0-1.7-0.5-1.7-1.5C170.6,99,172.8,98.9,173.6,98.9z
			M172.5,101.4c0.8,0,1.3-0.9,1.3-1.6v-0.2h-0.2c-0.7,0-2,0-2,1C171.6,101,171.9,101.4,172.5,101.4z"/>
			<path d="M178.2,96.9c1.2,0,1.5,0.8,1.5,0.8l0,0c0,0,0-0.1,0-0.3v-2.3h1v7h-0.9v-0.5c0-0.2,0-0.3,0-0.3l0,0
		c0,0-0.4,0.9-1.6,0.9c-1.4,0-2.2-1.1-2.2-2.6C175.9,97.9,176.9,96.9,178.2,96.9z M178.3,101.3c0.7,0,1.4-0.5,1.4-1.8
		c0-0.9-0.5-1.8-1.4-1.8c-0.8,0-1.4,0.7-1.4,1.8C176.9,100.6,177.5,101.3,178.3,101.3z"/>
			<path d="M184.4,96.9c1.4,0,2.2,1,2.2,2.3c0,0.1,0,0.4,0,0.4h-3.7c0,1.1,0.8,1.7,1.7,1.7s1.5-0.6,1.5-0.6l0.4,0.7
		c0,0-0.7,0.7-1.9,0.7c-1.6,0-2.7-1.1-2.7-2.6C181.9,97.9,182.9,96.9,184.4,96.9z M185.6,99c0-0.9-0.6-1.3-1.2-1.3
		c-0.7,0-1.3,0.5-1.5,1.3H185.6z"/>
		</g>
	</g>

	<g id="chuck">
		<path class="hb-cut-shape" d="M92.6,79.4
	c67.7,2.3,107.3-5.7,125-10.8c1.2-20.9,1.7-41.5,2-55.2c-33.3-2.6-82.2-10.9-84.3-11.3C130.9,1.4,127,1,123.6,1
	c-1.6,0-3,0.1-4.3,0.2C117.7,36.8,98.6,59.7,92.5,66C92.4,70.6,92.5,75.1,92.6,79.4z M218.1,69L218.1,69L218.1,69z"/>
		<g class="hb-cut-text">
			<path d="M152,35.9c1.7,0,2.5,0.9,2.5,0.9l-0.5,0.7c0,0-0.8-0.8-2-0.8c-1.6,0-2.6,1.2-2.6,2.7s1,2.8,2.6,2.8
		c1.3,0,2.2-0.9,2.2-0.9l0.5,0.7c0,0-1,1.1-2.7,1.1c-2.1,0-3.6-1.6-3.6-3.7C148.5,37.5,150,35.9,152,35.9z"/>
			<path d="M155.9,36h1v2.6c0,0.2,0,0.4,0,0.4l0,0c0.2-0.5,0.9-1.1,1.9-1.1c1.2,0,1.7,0.6,1.7,1.9V43h-1v-3
		c0-0.7-0.1-1.3-1-1.3c-0.8,0-1.4,0.5-1.6,1.2c-0.1,0.2-0.1,0.4-0.1,0.7V43h-1v-7H155.9z"/>
			<path d="M161.8,38h1v3c0,0.7,0.1,1.2,0.9,1.2c1,0,1.6-0.9,1.6-1.9V38h1v5h-0.9v-0.7c0-0.2,0-0.4,0-0.4l0,0
		c-0.2,0.5-0.9,1.1-1.8,1.1c-1.1,0-1.7-0.6-1.7-1.9V38H161.8z"/>
			<path d="M170.1,37.9c1.3,0,1.9,0.7,1.9,0.7l-0.5,0.7c0,0-0.5-0.6-1.4-0.6c-1,0-1.7,0.8-1.7,1.8s0.7,1.8,1.8,1.8
		c0.9,0,1.5-0.7,1.5-0.7l0.4,0.7c0,0-0.7,0.8-2,0.8c-1.6,0-2.7-1.1-2.7-2.6C167.4,39,168.5,37.9,170.1,37.9z"/>
			<path d="M173.2,36h1v3.8h0.7l1.4-1.8h1.1l-1.7,2.2l0,0l1.9,2.8h-1.1l-1.5-2.4h-0.7V43h-1L173.2,36L173.2,36z"/>
		</g>
	</g>

	<g id="cheek">
		<path class="hb-cut-shape" d="M59.9,76.5L59.9,76.5L59.9,76.5z M77.2,33.8c-2.9,0-5.9,0.8-8.8,2.3c-4.9,2.5-8.5,7.1-10.7,13.7
	c-1,2.9-1.6,6-2.3,9.6c-0.2,1-0.4,2.1-0.7,3c-0.5,2-0.9,3.8-1,5.8c-0.1,2.4,0.8,5.6,2.6,7.1c1,0.8,2.2,1.1,3.5,0.7
	c0.8-0.2,1.6-0.7,2.4-1.1c1-0.6,1.9-1.1,2.9-1.7c5.7-3.3,11.6-6.7,17-10.8c2.4-1.8,5.1-3.9,6.8-6.7c2.8-4.4,3.4-11,1.2-15.3
	c-0.9-1.8-2.5-3.3-4.6-4.5C82.9,34.5,80.1,33.8,77.2,33.8z"/>
		<g class="hb-cut-text">
			<path d="M62.9,47.8c1.7,0,2.5,0.9,2.5,0.9L65,49.5c0,0-0.8-0.8-2-0.8c-1.6,0-2.6,1.2-2.6,2.7s1,2.8,2.6,2.8
		c1.3,0,2.2-0.9,2.2-0.9l0.5,0.7c0,0-1,1.1-2.7,1.1c-2.1,0-3.6-1.6-3.6-3.7C59.4,49.4,60.9,47.8,62.9,47.8z"/>
			<path d="M66.8,48h1v2.6c0,0.2,0,0.4,0,0.4l0,0c0.2-0.5,0.9-1.1,1.9-1.1c1.2,0,1.7,0.6,1.7,1.9V55h-1v-3
		c0-0.7-0.1-1.3-1-1.3c-0.8,0-1.4,0.5-1.6,1.2c-0.1,0.2-0.1,0.4-0.1,0.7v2.3h-1L66.8,48L66.8,48z"/>
			<path d="M74.9,49.8c1.4,0,2.2,1,2.2,2.3c0,0.1,0,0.4,0,0.4h-3.7c0,1.1,0.8,1.7,1.7,1.7c0.9,0,1.5-0.6,1.5-0.6l0.4,0.7
		c0,0-0.7,0.7-1.9,0.7c-1.6,0-2.7-1.1-2.7-2.6C72.4,50.8,73.5,49.8,74.9,49.8z M76.1,51.9c0-0.9-0.6-1.3-1.2-1.3
		c-0.7,0-1.3,0.5-1.5,1.3H76.1z"/>
			<path d="M80.4,49.8c1.4,0,2.2,1,2.2,2.3c0,0.1,0,0.4,0,0.4h-3.7c0,1.1,0.8,1.7,1.7,1.7c0.9,0,1.5-0.6,1.5-0.6l0.4,0.7
		c0,0-0.7,0.7-1.9,0.7c-1.6,0-2.7-1.1-2.7-2.6C77.9,50.8,79,49.8,80.4,49.8z M81.6,51.9c0-0.9-0.6-1.3-1.2-1.3
		c-0.7,0-1.3,0.5-1.5,1.3H81.6z"/>
			<path d="M83.8,48h1v3.8h0.7l1.4-1.8H88l-1.7,2.2l0,0l1.9,2.8H87l-1.5-2.4h-0.7V55h-1V48z"/>
		</g>
	</g>

	<g id="tongue">
		<path class="hb-cut-shape" d="M33.2,53.4
	c-3.8,0-8.1,1.3-10.6,4.4c-0.6,0.7-1,1.4-1.5,2.3C20.5,61,20,62,19.2,62.9c-1.5,1.6-3.2,2.9-4.9,4.2L14,67.2
	c-2.3,1.7-4.8,2.7-7.3,3.7c-1.3,0.5-2.7,1-4,1.7c-0.6,0.3-1.9,1-1.7,1.9c0.1,0.6,0.8,0.9,1.3,1.2c0.9,0.4,2,0.6,3.1,0.6l0,0
	c5.2,0.2,9.3-2.2,13.6-4.8c2.3-1.4,4.7-2.7,7.2-3.7s5.3-1.4,8-1.3c1.3,0.1,2.6,0.2,3.8,0.4c1.4,0.2,2.9,0.4,4.4,0.4
	c0.8,0,1.9-0.1,2.7-0.6c0.9-0.6,1.5-1.7,1.6-3c0.2-5.2-6.2-9.3-10.9-10.1C35,53.5,34.1,53.4,33.2,53.4z"/>
		<g class="hb-cut-text">
			<path d="M8.6,82H6.2v-0.9H12V82H9.6v6.1h-1V82z"/>
			<path d="M14.3,83c1.5,0,2.7,1.1,2.7,2.6s-1.2,2.6-2.7,2.6s-2.7-1.1-2.7-2.6S12.8,83,14.3,83z M14.3,87.5
		c1,0,1.7-0.8,1.7-1.8s-0.8-1.8-1.7-1.8s-1.7,0.7-1.7,1.8C12.6,86.7,13.3,87.5,14.3,87.5z"/>
			<path d="M18.1,83.2H19v0.7c0,0.2,0,0.4,0,0.4l0,0c0.2-0.4,0.8-1.1,1.9-1.1c1.2,0,1.7,0.6,1.7,1.9v3.2h-1v-3
		c0-0.7-0.1-1.3-1-1.3c-0.8,0-1.4,0.5-1.6,1.2c-0.1,0.2-0.1,0.4-0.1,0.7v2.3h-1v-5H18.1z"/>
			<path d="M25.9,89.4c0.9,0,1.6-0.4,1.6-1.4v-0.4c0-0.2,0-0.3,0-0.3l0,0c-0.3,0.5-0.8,0.8-1.5,0.8
		c-1.4,0-2.2-1.1-2.2-2.6c0-1.4,0.8-2.5,2.2-2.5c1.2,0,1.6,0.7,1.6,0.7l0,0c0,0,0-0.1,0-0.2V83h0.9v5c0,1.7-1.3,2.3-2.5,2.3
		c-0.6,0-1.2-0.2-1.7-0.4l0.3-0.8C24.5,89.1,25.2,89.4,25.9,89.4z M27.5,85.6c0-1.3-0.6-1.7-1.4-1.7c-0.9,0-1.4,0.6-1.4,1.7
		c0,1,0.6,1.8,1.5,1.8C26.9,87.3,27.5,86.9,27.5,85.6z"/>
			<path d="M29.9,83.2h1v3c0,0.7,0.1,1.2,0.9,1.2c1,0,1.6-0.9,1.6-1.9v-2.3h1v5h-0.9v-0.7c0-0.2,0-0.4,0-0.4l0,0
		c-0.2,0.5-0.9,1.1-1.8,1.1c-1.1,0-1.7-0.6-1.7-1.9L29.9,83.2L29.9,83.2z"/>
			<path d="M38,83c1.4,0,2.2,1,2.2,2.3c0,0.1,0,0.4,0,0.4h-3.7c0,1.1,0.8,1.7,1.7,1.7s1.5-0.6,1.5-0.6l0.4,0.7
		c0,0-0.7,0.7-1.9,0.7c-1.6,0-2.7-1.1-2.7-2.6S36.6,83,38,83z M39.2,85.1c0-0.9-0.6-1.3-1.2-1.3c-0.7,0-1.3,0.5-1.5,1.3H39.2z"/>
		</g>
	</g>
</svg>
